<svg width="21" height="21" viewBox="0 0 21 21" fill="none" xmlns="http://www.w3.org/2000/svg">
<path fill-rule="evenodd" clip-rule="evenodd" d="M0 3.3125C0 2.58763 0.587626 2 1.3125 2H19.6875C20.4124 2 21 2.58763 21 3.3125C21 4.03737 20.4124 4.625 19.6875 4.625H1.3125C0.587626 4.625 0 4.03737 0 3.3125ZM0 9.875C0 9.15013 0.587626 8.5625 1.3125 8.5625H19.6875C20.4124 8.5625 21 9.15013 21 9.875C21 10.5999 20.4124 11.1875 19.6875 11.1875H1.3125C0.587626 11.1875 0 10.5999 0 9.875ZM0 16.4375C0 15.7126 0.587626 15.125 1.3125 15.125H19.6875C20.4124 15.125 21 15.7126 21 16.4375C21 17.1624 20.4124 17.75 19.6875 17.75H1.3125C0.587626 17.75 0 17.1624 0 16.4375Z" fill="#141414"/>
</svg>
