<svg width="18" height="18" viewBox="0 0 18 18" fill="none" xmlns="http://www.w3.org/2000/svg">
<path fill-rule="evenodd" clip-rule="evenodd" d="M8.91675 2.11667C5.16121 2.11667 2.11675 5.16114 2.11675 8.91667C2.11675 12.6722 5.16121 15.7167 8.91675 15.7167C12.6723 15.7167 15.7167 12.6722 15.7167 8.91667C15.7167 5.16114 12.6723 2.11667 8.91675 2.11667ZM0.416748 8.91667C0.416748 4.22225 4.22233 0.416672 8.91675 0.416672C13.6112 0.416672 17.4167 4.22225 17.4167 8.91667C17.4167 13.6111 13.6112 17.4167 8.91675 17.4167C4.22233 17.4167 0.416748 13.6111 0.416748 8.91667ZM8.91675 3.81667C9.38619 3.81667 9.76675 4.19723 9.76675 4.66667V8.56459L12.0678 10.8656C12.3997 11.1976 12.3997 11.7358 12.0678 12.0677C11.7358 12.3997 11.1977 12.3997 10.8657 12.0677L8.31571 9.51771C8.1563 9.35831 8.06675 9.14211 8.06675 8.91667V4.66667C8.06675 4.19723 8.44731 3.81667 8.91675 3.81667Z" fill="#005900"/>
</svg>
