<svg width="15" height="18" viewBox="0 0 15 18" fill="none" xmlns="http://www.w3.org/2000/svg">
<path fill-rule="evenodd" clip-rule="evenodd" d="M7.30006 1.95001C4.48338 1.95001 2.20001 4.23338 2.20001 7.05006C2.20001 7.92375 2.50937 8.90035 3.0343 9.91272C3.55541 10.9177 4.26009 11.9029 4.98118 12.7785C5.70019 13.6516 6.42157 14.399 6.96412 14.9286C7.08611 15.0477 7.19879 15.1555 7.30006 15.251C7.40133 15.1555 7.51401 15.0477 7.63599 14.9286C8.17854 14.399 8.89992 13.6516 9.61893 12.7785C10.34 11.9029 11.0447 10.9177 11.5658 9.91272C12.0907 8.90035 12.4001 7.92375 12.4001 7.05006C12.4001 4.23338 10.1167 1.95001 7.30006 1.95001ZM7.30006 16.4001C6.74688 17.0455 6.74673 17.0454 6.74655 17.0452L6.74475 17.0437L6.74047 17.04L6.72556 17.0271C6.71285 17.016 6.69466 17.0002 6.67135 16.9796C6.62474 16.9386 6.55763 16.8788 6.47293 16.8019C6.30361 16.6482 6.06367 16.4253 5.7766 16.1451C5.20351 15.5856 4.43738 14.7924 3.66889 13.8592C2.90246 12.9286 2.11963 11.8418 1.5251 10.6953C0.934401 9.55605 0.5 8.30138 0.5 7.05006C0.5 3.29449 3.54449 0.25 7.30006 0.25C11.0556 0.25 14.1001 3.29449 14.1001 7.05006C14.1001 8.30138 13.6657 9.55605 13.075 10.6953C12.4805 11.8418 11.6976 12.9286 10.9312 13.8592C10.1627 14.7924 9.3966 15.5856 8.82351 16.1451C8.53644 16.4253 8.2965 16.6482 8.12718 16.8019C8.04249 16.8788 7.97537 16.9386 7.92876 16.9796C7.90545 17.0002 7.88726 17.016 7.87455 17.0271L7.85965 17.04L7.85536 17.0437L7.85403 17.0448C7.85385 17.045 7.85323 17.0455 7.30006 16.4001ZM7.30006 16.4001L6.74655 17.0452C7.06487 17.3181 7.53491 17.3184 7.85323 17.0455L7.30006 16.4001ZM7.30006 5.35004C6.36116 5.35004 5.60004 6.11116 5.60004 7.05006C5.60004 7.98895 6.36116 8.75007 7.30006 8.75007C8.23895 8.75007 9.00007 7.98895 9.00007 7.05006C9.00007 6.11116 8.23895 5.35004 7.30006 5.35004ZM3.90003 7.05006C3.90003 5.17227 5.42227 3.65003 7.30006 3.65003C9.17784 3.65003 10.7001 5.17227 10.7001 7.05006C10.7001 8.92784 9.17784 10.4501 7.30006 10.4501C5.42227 10.4501 3.90003 8.92784 3.90003 7.05006Z" fill="#005900"/>
</svg>
