<svg width="17" height="17" viewBox="0 0 17 17" fill="none" xmlns="http://www.w3.org/2000/svg">
<path fill-rule="evenodd" clip-rule="evenodd" d="M8.12382 2.16683C4.62602 2.16683 1.79049 5.00236 1.79049 8.50016C1.79049 11.998 4.62602 14.8335 8.12382 14.8335C11.6216 14.8335 14.4572 11.998 14.4572 8.50016C14.4572 5.00236 11.6216 2.16683 8.12382 2.16683ZM0.207153 8.50016C0.207153 4.12791 3.75157 0.583496 8.12382 0.583496C12.4961 0.583496 16.0405 4.12791 16.0405 8.50016C16.0405 12.8724 12.4961 16.4168 8.12382 16.4168C3.75157 16.4168 0.207153 12.8724 0.207153 8.50016ZM8.12382 3.75016C8.56105 3.75016 8.91549 4.1046 8.91549 4.54183V8.17224L11.0586 10.3154C11.3678 10.6245 11.3678 11.1258 11.0586 11.435C10.7494 11.7441 10.2482 11.7441 9.93903 11.435L7.56403 9.05996C7.41556 8.91149 7.33215 8.71013 7.33215 8.50016V4.54183C7.33215 4.1046 7.68659 3.75016 8.12382 3.75016Z" fill="white"/>
</svg>
