<svg width="21" height="21" viewBox="0 0 21 21" fill="none" xmlns="http://www.w3.org/2000/svg">
<path fill-rule="evenodd" clip-rule="evenodd" d="M10.5909 3.5C7.8732 3.5 5.67007 5.85051 5.67007 8.75C5.67007 9.64939 5.96855 10.6547 6.47504 11.6968C6.97784 12.7314 7.65776 13.7455 8.35351 14.6469C9.04726 15.5456 9.7433 16.315 10.2668 16.8602C10.3845 16.9828 10.4932 17.0938 10.5909 17.1921C10.6886 17.0938 10.7973 16.9828 10.915 16.8602C11.4385 16.315 12.1346 15.5456 12.8283 14.6469C13.5241 13.7455 14.204 12.7314 14.7068 11.6968C15.2133 10.6547 15.5118 9.64939 15.5118 8.75C15.5118 5.85051 13.3086 3.5 10.5909 3.5ZM10.5909 18.375C10.0572 19.0393 10.057 19.0392 10.0569 19.0391L10.0551 19.0375L10.051 19.0337L10.0366 19.0204C10.0243 19.009 10.0068 18.9927 9.9843 18.9715C9.93933 18.9293 9.87457 18.8678 9.79285 18.7886C9.62948 18.6303 9.39797 18.4009 9.12099 18.1125C8.56803 17.5366 7.82882 16.72 7.08733 15.7594C6.34783 14.8013 5.59251 13.6827 5.01887 12.5024C4.44892 11.3297 4.02979 10.0381 4.02979 8.75C4.02979 4.88401 6.9673 1.75 10.5909 1.75C14.2145 1.75 17.152 4.88401 17.152 8.75C17.152 10.0381 16.7329 11.3297 16.163 12.5024C15.5893 13.6827 14.834 14.8013 14.0945 15.7594C13.353 16.72 12.6138 17.5366 12.0608 18.1125C11.7839 18.4009 11.5523 18.6303 11.389 18.7886C11.3073 18.8678 11.2425 18.9293 11.1975 18.9715C11.175 18.9927 11.1575 19.009 11.1452 19.0204L11.1308 19.0337L11.1267 19.0375L11.1254 19.0387C11.1252 19.0388 11.1247 19.0393 10.5909 18.375ZM10.5909 18.375L10.0569 19.0391C10.364 19.3199 10.8175 19.3202 11.1247 19.0393L10.5909 18.375ZM10.5909 7C9.68501 7 8.95063 7.7835 8.95063 8.75C8.95063 9.7165 9.68501 10.5 10.5909 10.5C11.4968 10.5 12.2312 9.7165 12.2312 8.75C12.2312 7.7835 11.4968 7 10.5909 7ZM7.31035 8.75C7.31035 6.817 8.77911 5.25 10.5909 5.25C12.4027 5.25 13.8715 6.817 13.8715 8.75C13.8715 10.683 12.4027 12.25 10.5909 12.25C8.77911 12.25 7.31035 10.683 7.31035 8.75Z" fill="white"/>
</svg>
