<svg width="15" height="16" viewBox="0 0 15 16" fill="none" xmlns="http://www.w3.org/2000/svg">
<path fill-rule="evenodd" clip-rule="evenodd" d="M2.19311 2C1.97849 3.58332 1.76695 7.85944 4.9165 11.2197C8.06606 14.5799 12.0741 14.3542 13.5581 14.1252V10.8853L10.4398 10.3309L9.96903 11.3354C9.84995 11.5895 9.60654 11.75 9.34027 11.75V11C9.34027 11.75 9.33992 11.75 9.33957 11.75L9.33883 11.75L9.33726 11.75L9.33371 11.75L9.32504 11.7499C9.31856 11.7497 9.31069 11.7496 9.30147 11.7492C9.28304 11.7486 9.25922 11.7475 9.23035 11.7454C9.17264 11.7413 9.09462 11.7336 8.9992 11.719C8.80849 11.69 8.54723 11.6335 8.23925 11.524C7.62083 11.3041 6.82013 10.872 6.03128 10.0303C5.24242 9.18871 4.83738 8.33445 4.63124 7.67467C4.52858 7.34608 4.4757 7.06735 4.44846 6.86388C4.43483 6.76208 4.42757 6.67884 4.42373 6.61727C4.4218 6.58647 4.42073 6.56105 4.42013 6.54139C4.41984 6.53156 4.41966 6.52316 4.41956 6.51625L4.41945 6.507L4.41943 6.50321L4.41943 6.50154L4.41942 6.50075C4.41942 6.50037 4.41942 6.5 5.1224 6.5H4.41942C4.41942 6.24923 4.53689 6.01506 4.73246 5.87596L6.3668 4.71352L5.34944 2H2.19311ZM5.87715 6.86456L7.14668 5.9616C7.69988 5.56813 7.91912 4.81503 7.6722 4.15644L6.65484 1.44291C6.44133 0.873426 5.92434 0.5 5.34944 0.5H2.15638C1.51772 0.5 0.916546 0.973371 0.8117 1.71268C0.573173 3.39463 0.248504 8.36075 3.92234 12.2803C7.59618 16.1999 12.251 15.8535 13.8274 15.599C14.5204 15.4872 14.9641 14.8458 14.9641 14.1644V10.8853C14.9641 10.1521 14.4672 9.5263 13.7893 9.40575L10.671 8.85127C10.0621 8.74301 9.45832 9.07105 9.18229 9.66004L8.93871 10.1798C8.86215 10.1597 8.77669 10.134 8.68385 10.101C8.2478 9.94591 7.64254 9.62805 7.02544 8.96967C6.40834 8.31129 6.1104 7.66555 5.96505 7.20033C5.92577 7.07462 5.8975 6.96159 5.87715 6.86456Z" fill="white"/>
</svg>
