<svg width="33" height="33" viewBox="0 0 33 33" fill="none" xmlns="http://www.w3.org/2000/svg">
<path d="M0 15.84C0 8.37292 0 4.63943 2.31971 2.31971C4.63943 0 8.37292 0 15.84 0H17.16C24.6271 0 28.3605 0 30.6803 2.31971C33 4.63943 33 8.37292 33 15.84V17.16C33 24.6271 33 28.3605 30.6803 30.6803C28.3605 33 24.6271 33 17.16 33H15.84C8.37292 33 4.63943 33 2.31971 30.6803C0 28.3605 0 24.6271 0 17.16V15.84Z" fill="url(#paint0_linear_408_62)"/>
<path d="M12.1444 23.0874L12.4465 23.2367C13.7055 23.9833 15.1154 24.3317 16.5253 24.3317C20.9566 24.3317 24.5821 20.7481 24.5821 16.3682C24.5821 14.2778 23.7261 12.2372 22.2155 10.744C20.7048 9.25085 18.6905 8.40477 16.5253 8.40477C12.0941 8.40477 8.4685 11.9883 8.51889 16.418C8.51889 17.9111 8.97208 19.3546 9.72738 20.5988L9.92878 20.8975L9.12317 23.834L12.1444 23.0874Z" fill="white"/>
<path d="M23.0714 9.94766C21.3594 8.20569 18.9927 7.26 16.5757 7.26C11.4395 7.26 7.31039 11.391 7.3607 16.4179C7.3607 18.0107 7.81389 19.5536 8.56926 20.9472L7.26 25.6755L12.1444 24.4312C13.504 25.1778 15.0146 25.5262 16.5253 25.5262C21.6112 25.5262 25.7403 21.3951 25.7403 16.3683C25.7403 13.9294 24.7834 11.6399 23.0714 9.94766ZM16.5757 23.9833C15.2161 23.9833 13.8565 23.635 12.6983 22.9382L12.3962 22.7888L9.47565 23.5354L10.2309 20.6985L10.0295 20.3998C7.81389 16.866 8.87137 12.1874 12.4969 9.9974C16.1225 7.80748 20.8055 8.85271 23.0211 12.4363C25.2367 16.0198 24.1792 20.6486 20.5538 22.8386C19.3955 23.5851 17.9856 23.9833 16.5757 23.9833ZM21.0069 18.4587L20.453 18.2099C20.453 18.2099 19.6474 17.8615 19.1438 17.6126C19.0934 17.6126 19.0431 17.5628 18.9927 17.5628C18.8416 17.5628 18.7409 17.6126 18.6402 17.6624C18.6402 17.6624 18.5899 17.7121 17.8849 18.5085C17.8345 18.608 17.7338 18.6578 17.6331 18.6578H17.5827C17.5324 18.6578 17.4317 18.608 17.3813 18.5583L17.1295 18.4587C16.5757 18.2099 16.0721 17.9112 15.6693 17.513C15.5686 17.4135 15.4175 17.314 15.3168 17.2144C14.9643 16.866 14.6118 16.4678 14.3601 16.0199L14.3097 15.9203C14.2594 15.8705 14.2594 15.8208 14.209 15.7213C14.209 15.6217 14.209 15.5222 14.2594 15.4724C14.2594 15.4724 14.4608 15.2235 14.6118 15.0743C14.7126 14.9747 14.7629 14.8254 14.8636 14.7258C14.9643 14.5765 15.0147 14.3774 14.9643 14.2281C14.914 13.9792 14.3097 12.6354 14.1587 12.3368C14.0579 12.1875 13.9573 12.1377 13.8062 12.0879H13.2523C13.1515 12.0879 13.0509 12.1377 12.9501 12.1377L12.8997 12.1875C12.799 12.2373 12.6983 12.3368 12.5976 12.3865C12.4969 12.4861 12.4465 12.5856 12.3458 12.6852C11.9933 13.1331 11.7919 13.6806 11.7919 14.2281C11.7919 14.6262 11.8926 15.0245 12.0437 15.3729L12.0941 15.5222C12.5473 16.4678 13.1515 17.314 13.9573 18.0605L14.1587 18.2596C14.3097 18.4089 14.4608 18.5085 14.5615 18.6577C15.619 19.5537 16.8274 20.2007 18.187 20.5491C18.3381 20.5989 18.5395 20.5989 18.6906 20.6487H19.1941C19.4459 20.6487 19.748 20.5491 19.9495 20.4496C20.1005 20.35 20.2012 20.35 20.3019 20.2505L20.4027 20.1509C20.5034 20.0514 20.6041 20.0016 20.7048 19.9021C20.8055 19.8026 20.9062 19.703 20.9566 19.6034C21.0573 19.4044 21.1076 19.1555 21.158 18.9067V18.5583C21.158 18.5583 21.1076 18.5085 21.0069 18.4587Z" fill="black"/>
<defs>
<linearGradient id="paint0_linear_408_62" x1="16.5" y1="0" x2="16.5" y2="33" gradientUnits="userSpaceOnUse">
<stop stop-color="white"/>
<stop offset="0.765625" stop-color="white"/>
</linearGradient>
</defs>
</svg>
