<svg width="24" height="24" viewBox="0 0 24 24" fill="none" xmlns="http://www.w3.org/2000/svg">
<path fill-rule="evenodd" clip-rule="evenodd" d="M12.0002 2.66683C6.8455 2.66683 2.66683 6.8455 2.66683 12.0002C2.66683 17.1548 6.8455 21.3335 12.0002 21.3335C17.1548 21.3335 21.3335 17.1548 21.3335 12.0002C21.3335 6.8455 17.1548 2.66683 12.0002 2.66683ZM0.333496 12.0002C0.333496 5.55684 5.55684 0.333496 12.0002 0.333496C18.4435 0.333496 23.6668 5.55684 23.6668 12.0002C23.6668 18.4435 18.4435 23.6668 12.0002 23.6668C5.55684 23.6668 0.333496 18.4435 0.333496 12.0002ZM12.0002 5.00016C12.6445 5.00016 13.1668 5.5225 13.1668 6.16683V15.0169L15.8419 12.3419C16.2975 11.8863 17.0362 11.8863 17.4918 12.3419C17.9474 12.7975 17.9474 13.5362 17.4918 13.9918L12.8251 18.6585C12.3695 19.1141 11.6308 19.1141 11.1752 18.6585L6.50854 13.9918C6.05293 13.5362 6.05293 12.7975 6.50854 12.3419C6.96415 11.8863 7.70284 11.8863 8.15845 12.3419L10.8335 15.0169V6.16683C10.8335 5.5225 11.3558 5.00016 12.0002 5.00016Z" fill="#005900"/>
</svg>
