<svg width="102" height="102" viewBox="0 0 102 102" fill="none" xmlns="http://www.w3.org/2000/svg">
<path fill-rule="evenodd" clip-rule="evenodd" d="M51.0001 10.3333C28.5405 10.3333 10.3334 28.5404 10.3334 51C10.3334 73.4595 28.5405 91.6666 51.0001 91.6666C73.4597 91.6666 91.6668 73.4595 91.6668 51C91.6668 28.5404 73.4597 10.3333 51.0001 10.3333ZM0.166748 51C0.166748 22.9255 22.9256 0.166626 51.0001 0.166626C79.0746 0.166626 101.833 22.9255 101.833 51C101.833 79.0744 79.0746 101.833 51.0001 101.833C22.9256 101.833 0.166748 79.0744 0.166748 51Z" fill="#005900"/>
<path fill-rule="evenodd" clip-rule="evenodd" d="M51.0001 61.1666C48.1926 61.1666 45.9167 58.8907 45.9167 56.0833L45.9168 25.5833C45.9168 22.7758 48.1926 20.5 51.0001 20.5C53.8075 20.5 56.0834 22.7758 56.0834 25.5833L56.0834 56.0833C56.0834 58.8907 53.8075 61.1666 51.0001 61.1666Z" fill="#005900"/>
<path d="M43.3751 73.875C43.3751 69.6638 46.7889 66.25 51.0001 66.25C55.2113 66.25 58.6251 69.6638 58.6251 73.875C58.6251 78.0861 55.2113 81.5 51.0001 81.5C46.7889 81.5 43.3751 78.0861 43.3751 73.875Z" fill="#005900"/>
</svg>
