<svg width="29" height="29" viewBox="0 0 29 29" fill="none" xmlns="http://www.w3.org/2000/svg">
<g clip-path="url(#clip0_242_105)">
<g filter="url(#filter0_d_242_105)">
<path fill-rule="evenodd" clip-rule="evenodd" d="M14.1459 5C8.93755 5 4.71532 9.16649 4.71532 14.3061C4.71532 19.4458 8.93755 23.6122 14.1459 23.6122C19.3543 23.6122 23.5766 19.4458 23.5766 14.3061C23.5766 9.16649 19.3543 5 14.1459 5ZM2.35767 14.3061C2.35767 7.88159 7.63546 2.67347 14.1459 2.67347C20.6564 2.67347 25.9342 7.88159 25.9342 14.3061C25.9342 20.7307 20.6564 25.9388 14.1459 25.9388C7.63546 25.9388 2.35767 20.7307 2.35767 14.3061ZM19.6444 10.5285C20.131 10.9553 20.1749 11.6906 19.7423 12.1708L13.4552 19.1504C13.2315 19.3987 12.9109 19.5408 12.5742 19.5408C12.2375 19.5408 11.9168 19.3987 11.6931 19.1504L8.54956 15.6606C8.11703 15.1804 8.16086 14.4451 8.64746 14.0183C9.13406 13.5915 9.87916 13.6347 10.3117 14.1149L12.5742 16.6266L17.9802 10.6251C18.4127 10.145 19.1578 10.1017 19.6444 10.5285Z" fill="#00B900"/>
</g>
</g>
<defs>
<filter id="filter0_d_242_105" x="-7.64233" y="-3.32653" width="43.5765" height="43.2653" filterUnits="userSpaceOnUse" color-interpolation-filters="sRGB">
<feFlood flood-opacity="0" result="BackgroundImageFix"/>
<feColorMatrix in="SourceAlpha" type="matrix" values="0 0 0 0 0 0 0 0 0 0 0 0 0 0 0 0 0 0 127 0" result="hardAlpha"/>
<feOffset dy="4"/>
<feGaussianBlur stdDeviation="5"/>
<feComposite in2="hardAlpha" operator="out"/>
<feColorMatrix type="matrix" values="0 0 0 0 1 0 0 0 0 1 0 0 0 0 1 0 0 0 0.15 0"/>
<feBlend mode="normal" in2="BackgroundImageFix" result="effect1_dropShadow_242_105"/>
<feBlend mode="normal" in="SourceGraphic" in2="effect1_dropShadow_242_105" result="shape"/>
</filter>
<clipPath id="clip0_242_105">
<rect width="28.2919" height="27.9184" fill="white" transform="translate(0 0.346939)"/>
</clipPath>
</defs>
</svg>
