<svg width="24" height="20" viewBox="0 0 24 20" fill="none" xmlns="http://www.w3.org/2000/svg">
<path fill-rule="evenodd" clip-rule="evenodd" d="M11.5851 0.498306C12.1383 1.05155 12.1383 1.94853 11.5851 2.50178L5.50346 8.58337H21.9167C22.6991 8.58337 23.3333 9.21764 23.3333 10C23.3333 10.7824 22.6991 11.4167 21.9167 11.4167H5.50346L11.5851 17.4983C12.1383 18.0515 12.1383 18.9485 11.5851 19.5018C11.0318 20.055 10.1348 20.055 9.58159 19.5018L1.08159 11.0018C0.815912 10.7361 0.666656 10.3758 0.666656 10C0.666656 9.62432 0.815912 9.26398 1.08159 8.99831L9.58159 0.498306C10.1348 -0.0549367 11.0318 -0.0549367 11.5851 0.498306Z" fill="white"/>
</svg>
