<svg width="24" height="20" viewBox="0 0 24 20" fill="none" xmlns="http://www.w3.org/2000/svg">
<path fill-rule="evenodd" clip-rule="evenodd" d="M12.4149 0.498306C11.8617 1.05155 11.8617 1.94853 12.4149 2.50178L18.4965 8.58337H2.08331C1.30091 8.58337 0.666645 9.21764 0.666645 10C0.666645 10.7824 1.30091 11.4167 2.08331 11.4167H18.4965L12.4149 17.4983C11.8617 18.0515 11.8617 18.9485 12.4149 19.5018C12.9682 20.055 13.8651 20.055 14.4184 19.5018L22.9184 11.0018C23.1841 10.7361 23.3333 10.3758 23.3333 10C23.3333 9.62432 23.1841 9.26398 22.9184 8.99831L14.4184 0.498306C13.8651 -0.0549367 12.9682 -0.0549367 12.4149 0.498306Z" fill="white"/>
</svg>
